<svg width="36" height="36" viewBox="0 0 36 36" fill="none" xmlns="http://www.w3.org/2000/svg">
<g clip-path="url(#clip0_167_53)">
<path d="M0 17.28C0 9.1341 0 5.06119 2.5306 2.5306C5.06119 0 9.1341 0 17.28 0H18.72C26.8659 0 30.9388 0 33.4694 2.5306C36 5.06119 36 9.1341 36 17.28V18.72C36 26.8659 36 30.9388 33.4694 33.4694C30.9388 36 26.8659 36 18.72 36H17.28C9.1341 36 5.06119 36 2.5306 33.4694C0 30.9388 0 26.8659 0 18.72V17.28Z" fill="#DDC8B5"/>
<path fill-rule="evenodd" clip-rule="evenodd" d="M8.14782 17.8099C13.3952 15.5237 16.8943 14.0165 18.645 13.2883C23.6438 11.2092 24.6825 10.848 25.3595 10.8361C25.5084 10.8334 25.8414 10.8703 26.057 11.0453C26.2391 11.1931 26.2892 11.3927 26.3132 11.5328C26.3372 11.6729 26.367 11.992 26.3433 12.2414C26.0724 15.0876 24.9003 21.9947 24.304 25.1825C24.0517 26.5314 23.5549 26.9836 23.0739 27.0279C22.0286 27.1241 21.2348 26.3371 20.2224 25.6734C18.6382 24.635 17.7432 23.9885 16.2054 22.9751C14.4282 21.804 15.5803 21.1603 16.5931 20.1084C16.8582 19.8331 21.4637 15.644 21.5529 15.2639C21.564 15.2164 21.5744 15.0393 21.4691 14.9457C21.3639 14.8522 21.2085 14.8841 21.0965 14.9096C20.9376 14.9457 18.4067 16.6184 13.5039 19.9279C12.7856 20.4212 12.1349 20.6616 11.5519 20.649C10.9092 20.6351 9.67294 20.2856 8.75389 19.9869C7.62664 19.6204 6.73072 19.4267 6.80874 18.8044C6.84937 18.4803 7.29573 18.1488 8.14782 17.8099Z" fill="white"/>
</g>
<defs>
<clipPath id="clip0_167_53">
<rect width="36" height="36" rx="8" fill="white"/>
</clipPath>
</defs>
</svg>
